# xmcd CD database file
#
# Track frame offsets:
#	150
#	19763
#	32702
#	44727
#	63098
#	75674
#	87083
#	107882
#	122164
#	144026
#	161204
#	174020
#	189164
#	209582
#
# Disc length: 2870 seconds
#
# Revision: 0
# Processed by: cddbd v1.5.2PL0 Copyright (c) Steve Scherf et al.
# Submitted via: CDex 1.70beta2
#
DISCID=b20b340e
DTITLE=gordon, J>D> - Cdn. - Good To Be Alive
DYEAR=1900
DGENRE=Country
TTITLE0=I.cew Got the VBlues
TTITLE1=Forever
TTITLE2=Save Us Some Time
TTITLE3=Good To Be Alive
TTITLE4=Wish You Were Here Babe
TTITLE5=Two Peas In A Pod
TTITLE6=Highway 17
TTITLE7=Ontario Loggers Song
TTITLE8=I'll Be Your Baby Tonight
TTITLE9=Don't Know What To Do About You
TTITLE10=Body and Soul
TTITLE11=I Don't Care Anymore
TTITLE12=Wish'n I Was Home Sweet Home
TTITLE13=Foggy Mountain Breakdown
EXTD=
EXTT0=
EXTT1=
EXTT2=
EXTT3=
EXTT4=
EXTT5=
EXTT6=
EXTT7=
EXTT8=
EXTT9=
EXTT10=
EXTT11=
EXTT12=
EXTT13=
PLAYORDER=
